<svg xmlns="http://www.w3.org/2000/svg" viewBox="0 0 2400 70" width="2400" height="70" aria-hidden="true"><g transform="translate(0.00 0.00) scale(24.00000 0.70000)"><path d="M0 0C34.4 0.2 66.6 -0.1 99.9 -0M-0 99.9C35.9 99.9 73.7 100 100 100.1" fill="none" stroke="#FBF6EE" stroke-width="0.189" stroke-linecap="round" stroke-linejoin="round"/><path d="M0 91.9C1.1 91.9 2.3 91.9 3.4 91.9C2.8 64.2 2.3 36.6 1.7 7.9C1.1 35.6 0.5 63.4 0 91.9Z" fill="#FBF6EE" stroke="#FBF6EE" stroke-width="0.074" stroke-linecap="round" stroke-linejoin="round"/><path d="M3.9 92C5 92 6.1 92.1 7.3 92.1C6.8 64.3 6.2 36.6 5.6 8C5 35.7 4.5 63.4 3.9 92Z" fill="#FBF6EE" stroke="#FBF6EE" stroke-width="0.074" stroke-linecap="round" stroke-linejoin="round"/><path d="M7.4 91.9C8.6 91.9 9.8 92 11 92C10.5 64.3 9.8 36.5 9.3 8C8.8 35.7 8 63.3 7.4 91.9Z" fill="#FBF6EE" stroke="#FBF6EE" stroke-width="0.074" stroke-linecap="round" stroke-linejoin="round"/><path d="M11.2 92C12.3 92 13.6 92 14.7 92C14.1 64.3 13.4 36.5 12.8 8.1C12.2 35.7 11.8 63.4 11.2 92Z" fill="#FBF6EE" stroke="#FBF6EE" stroke-width="0.074" stroke-linecap="round" stroke-linejoin="round"/><path d="M14.8 92.1C16 92.1 17.1 92.1 18.3 92C17.8 64.2 17.2 36.5 16.7 7.9C16 35.7 15.5 63.4 14.8 92.1Z" fill="#FBF6EE" stroke="#FBF6EE" stroke-width="0.074" stroke-linecap="round" stroke-linejoin="round"/><path d="M18.7 92.1C19.8 92 21 92.1 22.1 92C21.4 64.3 20.9 36.6 20.3 8C19.9 35.8 19.3 63.5 18.7 92.1Z" fill="#FBF6EE" stroke="#FBF6EE" stroke-width="0.074" stroke-linecap="round" stroke-linejoin="round"/><path d="M22.4 91.9C23.4 91.9 24.5 91.9 25.6 92C25 64.3 24.5 36.4 23.9 7.8C23.4 35.6 22.9 63.3 22.4 91.9Z" fill="#FBF6EE" stroke="#FBF6EE" stroke-width="0.074" stroke-linecap="round" stroke-linejoin="round"/><path d="M26.2 92C27.2 92 28.5 91.9 29.6 91.9C29 64.2 28.2 36.5 27.6 7.9C27.1 35.6 26.7 63.4 26.2 92Z" fill="#FBF6EE" stroke="#FBF6EE" stroke-width="0.074" stroke-linecap="round" stroke-linejoin="round"/><path d="M29.8 92C30.9 92 32 91.9 33.2 91.9C32.6 64.1 32.1 36.5 31.4 8C30.8 35.8 30.4 63.4 29.8 92Z" fill="#FBF6EE" stroke="#FBF6EE" stroke-width="0.074" stroke-linecap="round" stroke-linejoin="round"/><path d="M33.5 92C34.6 92 35.7 91.9 36.8 91.9C36.3 64.3 35.8 36.5 35.2 8C34.7 35.7 34.1 63.5 33.5 92Z" fill="#FBF6EE" stroke="#FBF6EE" stroke-width="0.074" stroke-linecap="round" stroke-linejoin="round"/><path d="M37.1 91.9C38.3 91.8 39.4 91.9 40.7 91.8C40 64.2 39.5 36.4 38.8 7.9C38.3 35.6 37.6 63.4 37.1 91.9Z" fill="#FBF6EE" stroke="#FBF6EE" stroke-width="0.074" stroke-linecap="round" stroke-linejoin="round"/><path d="M41 92C42.1 92 43 92.1 44.1 92.1C43.7 64.3 43.2 36.6 42.7 8C42 35.8 41.6 63.5 41 92Z" fill="#FBF6EE" stroke="#FBF6EE" stroke-width="0.074" stroke-linecap="round" stroke-linejoin="round"/><path d="M44.6 91.9C45.6 91.9 46.7 91.8 47.8 91.8C47.3 64.2 46.7 36.5 46.2 7.9C45.7 35.6 45.1 63.3 44.6 91.9Z" fill="#FBF6EE" stroke="#FBF6EE" stroke-width="0.074" stroke-linecap="round" stroke-linejoin="round"/><path d="M48.4 92C49.5 92 50.7 91.9 51.8 92C51.3 64.3 50.6 36.6 50 8.1C49.5 35.7 48.9 63.5 48.4 92Z" fill="#FBF6EE" stroke="#FBF6EE" stroke-width="0.074" stroke-linecap="round" stroke-linejoin="round"/><path d="M52 92C53 92 54.1 91.9 55.2 91.9C54.7 64.2 54.1 36.6 53.6 8C53 35.7 52.5 63.5 52 92Z" fill="#FBF6EE" stroke="#FBF6EE" stroke-width="0.074" stroke-linecap="round" stroke-linejoin="round"/><path d="M55.6 91.8C56.7 91.8 57.8 91.8 58.9 91.8C58.5 64.1 57.8 36.4 57.3 7.9C56.8 35.6 56.2 63.3 55.6 91.8Z" fill="#FBF6EE" stroke="#FBF6EE" stroke-width="0.074" stroke-linecap="round" stroke-linejoin="round"/><path d="M59.4 91.8C60.5 91.8 61.6 91.9 62.8 91.9C62.3 64.3 61.6 36.6 61.1 8.1C60.6 35.7 59.9 63.4 59.4 91.8Z" fill="#FBF6EE" stroke="#FBF6EE" stroke-width="0.074" stroke-linecap="round" stroke-linejoin="round"/><path d="M63 92.1C64.1 92 65.3 92 66.6 92C66 64.2 65.4 36.5 64.7 7.8C64.1 35.7 63.5 63.4 63 92.1Z" fill="#FBF6EE" stroke="#FBF6EE" stroke-width="0.074" stroke-linecap="round" stroke-linejoin="round"/><path d="M66.9 91.8C68 91.9 69.1 92 70.3 92.1C69.7 64.3 69 36.6 68.4 8.1C67.9 35.7 67.4 63.3 66.9 91.8Z" fill="#FBF6EE" stroke="#FBF6EE" stroke-width="0.074" stroke-linecap="round" stroke-linejoin="round"/><path d="M70.4 91.9C71.5 92 72.8 91.8 74 91.9C73.4 64.3 72.8 36.5 72.2 8C71.6 35.6 70.9 63.4 70.4 91.9Z" fill="#FBF6EE" stroke="#FBF6EE" stroke-width="0.074" stroke-linecap="round" stroke-linejoin="round"/><path d="M74.1 91.8C75.2 91.8 76.4 91.9 77.6 91.9C77 64.3 76.5 36.5 75.9 8C75.2 35.6 74.7 63.3 74.1 91.8Z" fill="#FBF6EE" stroke="#FBF6EE" stroke-width="0.074" stroke-linecap="round" stroke-linejoin="round"/><path d="M77.9 92C79.1 91.9 80.3 92 81.4 91.9C80.7 64.1 80.1 36.5 79.5 7.9C78.9 35.7 78.5 63.4 77.9 92Z" fill="#FBF6EE" stroke="#FBF6EE" stroke-width="0.074" stroke-linecap="round" stroke-linejoin="round"/><path d="M81.7 92C82.9 91.9 83.9 91.9 85 91.9C84.5 64.1 83.8 36.5 83.3 7.9C82.8 35.6 82.3 63.4 81.7 92Z" fill="#FBF6EE" stroke="#FBF6EE" stroke-width="0.074" stroke-linecap="round" stroke-linejoin="round"/><path d="M85.3 92C86.4 92 87.6 92 88.7 91.9C88.1 64.3 87.6 36.6 87 8.1C86.5 35.8 85.9 63.4 85.3 92Z" fill="#FBF6EE" stroke="#FBF6EE" stroke-width="0.074" stroke-linecap="round" stroke-linejoin="round"/><path d="M88.9 91.9C90 91.9 91.1 91.9 92.3 91.9C91.8 64.2 91.3 36.5 90.7 8C90.2 35.7 89.5 63.5 88.9 91.9Z" fill="#FBF6EE" stroke="#FBF6EE" stroke-width="0.074" stroke-linecap="round" stroke-linejoin="round"/><path d="M92.8 92C93.9 92.1 95 92.1 96.2 92C95.6 64.3 95.1 36.6 94.5 8C93.9 35.7 93.4 63.5 92.8 92Z" fill="#FBF6EE" stroke="#FBF6EE" stroke-width="0.074" stroke-linecap="round" stroke-linejoin="round"/><path d="M96.4 91.9C97.6 91.9 98.7 92 99.9 92C99.3 64.2 98.8 36.6 98.2 8C97.6 35.7 97 63.3 96.4 91.9Z" fill="#FBF6EE" stroke="#FBF6EE" stroke-width="0.074" stroke-linecap="round" stroke-linejoin="round"/></g></svg>