<svg xmlns="http://www.w3.org/2000/svg" width="1160" height="974" viewBox="0 0 1160 974"><rect width="1160" height="974" fill="#fff"/><text x="12" y="28" font-size="17" font-family="sans-serif" font-weight="700" fill="#111">warli — page 4/7 (139 presets)</text><g transform="translate(8,52)"><rect width="216" height="198" fill="#8C4A2F"/><g transform="translate(0,-9) scale(2.16,2.16)"><path d="M58.98 69.49C60.08 69.8 56.21 70.05 54.9 70.12C53.58 70.19 52.42 70.13 51.1 69.91C49.78 69.69 48.28 69.28 47 68.79C45.71 68.31 44.52 67.72 43.4 67C42.29 66.28 41.26 65.37 40.31 64.47C39.36 63.56 38.51 62.68 37.73 61.57C36.95 60.46 36.22 59.05 35.65 57.79C35.08 56.54 34.59 55.36 34.32 54.06C34.05 52.77 33.98 51.39 34.03 50.03C34.07 48.66 34.32 47.21 34.58 45.88C34.84 44.55 35.09 43.28 35.6 42.06C36.12 40.83 36.88 39.6 37.66 38.53C38.44 37.47 39.36 36.6 40.3 35.68C41.24 34.75 42.2 33.74 43.31 33.01C44.42 32.27 45.66 31.72 46.94 31.28C48.21 30.84 49.62 30.57 50.93 30.37C52.25 30.16 53.45 30 54.82 30.03C56.18 30.06 60.21 30.27 59.13 30.54C58.04 30.81 50.72 31.54 48.3 31.66C45.88 31.77 45.85 31.26 44.61 31.24C43.37 31.22 42.14 31.36 40.88 31.54C39.62 31.73 38.21 31.92 37.03 32.34C35.85 32.77 34.86 33.41 33.81 34.09C32.76 34.76 31.65 35.5 30.72 36.39C29.79 37.28 28.95 38.39 28.21 39.44C27.46 40.5 26.79 41.58 26.26 42.73C25.74 43.89 25.33 45.15 25.06 46.36C24.8 47.57 24.64 48.73 24.65 49.99C24.66 51.24 24.85 52.69 25.12 53.89C25.39 55.1 25.74 56.07 26.27 57.24C26.8 58.4 27.61 59.86 28.33 60.9C29.05 61.93 29.69 62.61 30.59 63.47C31.49 64.32 32.65 65.31 33.74 66.01C34.82 66.71 35.95 67.26 37.1 67.67C38.25 68.09 39.43 68.33 40.65 68.51C41.87 68.68 43.13 68.77 44.41 68.73C45.68 68.69 45.88 68.15 48.31 68.27C50.74 68.4 57.88 69.18 58.98 69.49Z" fill="#F4EDE2" stroke="#F4EDE2" stroke-width="0.23" stroke-linecap="round" stroke-linejoin="round"/></g><text x="0" y="212" font-size="10" font-family="sans-serif" fill="#333">Moon</text><text x="216" y="212" text-anchor="end" font-size="9" font-family="monospace" fill="#999">1</text></g><g transform="translate(240,52)"><rect width="216" height="198" fill="#8C4A2F"/><g transform="translate(0,-9) scale(2.16,2.16)"><path d="M60.11 42.24C60.5 43.1 62.09 45.6 62.44 47.43C62.78 49.25 62.65 51.48 62.16 53.19C61.68 54.9 60.68 56.35 59.54 57.67C58.4 58.99 56.99 60.3 55.35 61.1C53.71 61.9 51.59 62.53 49.73 62.47C47.86 62.41 45.78 61.54 44.17 60.74C42.56 59.94 41.13 59.04 40.06 57.66C38.98 56.28 38.08 54.23 37.71 52.47C37.35 50.7 37.41 48.83 37.86 47.08C38.31 45.32 39.29 43.37 40.42 41.96C41.55 40.55 42.98 39.29 44.62 38.6C46.26 37.91 48.43 37.76 50.23 37.81C52.04 37.86 53.88 38.09 55.46 38.91C57.03 39.72 58.98 42.06 59.69 42.69" fill="#F4EDE2" stroke="#F4EDE2" stroke-width="0.65" stroke-linecap="round" stroke-linejoin="round"/><path d="M64.16 49.83C66.92 50.18 68.38 50.22 70.15 50.11" fill="none" stroke="#F4EDE2" stroke-width="0.65" stroke-linecap="round" stroke-linejoin="round"/><path d="M62.78 56.19C65.09 57.16 67.17 58.21 68.12 58.57" fill="none" stroke="#F4EDE2" stroke-width="0.65" stroke-linecap="round" stroke-linejoin="round"/><path d="M59.08 61.26C60.09 63.01 61.6 64.49 62.37 65.66" fill="none" stroke="#F4EDE2" stroke-width="0.65" stroke-linecap="round" stroke-linejoin="round"/><path d="M52.94 64.25C53.5 65.69 54.23 67.61 54.61 69.39" fill="none" stroke="#F4EDE2" stroke-width="0.65" stroke-linecap="round" stroke-linejoin="round"/><path d="M47.06 63.92C46.44 65.79 46.02 67.96 45.53 69.75" fill="none" stroke="#F4EDE2" stroke-width="0.65" stroke-linecap="round" stroke-linejoin="round"/><path d="M41.19 61.22C39.87 62.73 38.39 64.52 37.4 65.37" fill="none" stroke="#F4EDE2" stroke-width="0.65" stroke-linecap="round" stroke-linejoin="round"/><path d="M37.29 56.27C34.98 57.02 33.81 58 31.95 58.76" fill="none" stroke="#F4EDE2" stroke-width="0.65" stroke-linecap="round" stroke-linejoin="round"/><path d="M35.32 50.15C33.25 50.27 31.31 50 30.07 49.95" fill="none" stroke="#F4EDE2" stroke-width="0.65" stroke-linecap="round" stroke-linejoin="round"/><path d="M36.97 43.48C35.34 43.04 33.73 42.39 32.25 41.34" fill="none" stroke="#F4EDE2" stroke-width="0.65" stroke-linecap="round" stroke-linejoin="round"/><path d="M40.82 38.76C39.48 37.08 38.25 35.4 37.74 34.39" fill="none" stroke="#F4EDE2" stroke-width="0.65" stroke-linecap="round" stroke-linejoin="round"/><path d="M46.98 35.97C46.24 33.8 45.59 31.76 45.56 30.73" fill="none" stroke="#F4EDE2" stroke-width="0.65" stroke-linecap="round" stroke-linejoin="round"/><path d="M53.39 36.06C53.66 33.31 54.24 31.95 54.49 30.77" fill="none" stroke="#F4EDE2" stroke-width="0.65" stroke-linecap="round" stroke-linejoin="round"/><path d="M58.98 38.56C60.27 37.13 61.51 35.5 62.63 34.45" fill="none" stroke="#F4EDE2" stroke-width="0.65" stroke-linecap="round" stroke-linejoin="round"/><path d="M63.18 43.86C64.68 43.28 67.07 41.85 68.04 41.2" fill="none" stroke="#F4EDE2" stroke-width="0.65" stroke-linecap="round" stroke-linejoin="round"/><path d="M87.09 28.54C87.6 28.68 86.01 28.78 85.43 28.84C84.86 28.89 84.24 28.96 83.65 28.87C83.07 28.78 82.5 28.47 81.94 28.29C81.39 28.11 80.84 28.12 80.34 27.8C79.83 27.48 79.38 26.81 78.92 26.4C78.46 25.98 77.97 25.8 77.59 25.31C77.21 24.81 76.89 24.02 76.65 23.44C76.4 22.87 76.24 22.42 76.14 21.86C76.05 21.29 76.04 20.65 76.07 20.07C76.09 19.48 76.22 18.92 76.31 18.35C76.41 17.78 76.44 17.19 76.63 16.63C76.82 16.06 77.1 15.52 77.45 14.97C77.8 14.42 78.25 13.75 78.71 13.35C79.17 12.94 79.67 12.82 80.19 12.51C80.72 12.2 81.3 11.73 81.87 11.49C82.43 11.24 82.98 11.12 83.6 11.05C84.21 10.98 84.95 11.02 85.55 11.06C86.16 11.11 87.73 11.17 87.22 11.32C86.7 11.47 83.59 11.91 82.49 11.95C81.38 12 81.12 11.69 80.57 11.61C80.02 11.53 79.7 11.41 79.17 11.5C78.65 11.58 77.98 11.89 77.41 12.11C76.83 12.34 76.24 12.55 75.73 12.82C75.22 13.09 74.76 13.35 74.37 13.73C73.98 14.11 73.71 14.63 73.39 15.09C73.07 15.55 72.67 15.96 72.45 16.51C72.22 17.05 72.18 17.81 72.06 18.36C71.94 18.92 71.71 19.31 71.73 19.85C71.74 20.38 72.03 20.96 72.14 21.57C72.26 22.17 72.2 22.93 72.42 23.47C72.64 24.01 73.15 24.39 73.49 24.82C73.83 25.24 74.06 25.6 74.45 26C74.83 26.41 75.3 26.91 75.79 27.26C76.28 27.6 76.82 27.92 77.37 28.09C77.92 28.25 78.56 28.17 79.1 28.25C79.63 28.33 80.05 28.62 80.59 28.58C81.14 28.55 81.29 28.03 82.37 28.02C83.46 28.02 86.58 28.41 87.09 28.54Z" fill="#F4EDE2" stroke="#F4EDE2" stroke-width="0.23" stroke-linecap="round" stroke-linejoin="round"/></g><text x="0" y="212" font-size="10" font-family="sans-serif" fill="#333">Sun and moon</text><text x="216" y="212" text-anchor="end" font-size="9" font-family="monospace" fill="#999">16</text></g><g transform="translate(472,52)"><rect width="216" height="198" fill="#8C4A2F"/><g transform="translate(0,67.8) scale(2.16,0.624)"><path d="M16.74 36.05C22.89 53.13 28.97 70.32 35.21 87.91C22.96 87.97 10.74 87.93 -1.9 87.99C4.19 70.88 10.36 53.68 16.74 36.05Z" fill="#F4EDE2" stroke="#F4EDE2" stroke-width="0.23" stroke-linecap="round" stroke-linejoin="round"/><path d="M49.95 49.59C56.1 62.21 62.39 74.99 68.74 88C56.42 88.03 44.02 88.11 31.26 88.13C37.45 75.39 43.57 62.65 49.95 49.59Z" fill="#F4EDE2" stroke="#F4EDE2" stroke-width="0.23" stroke-linecap="round" stroke-linejoin="round"/><path d="M83.31 35.92C89.49 53.05 95.53 70.19 101.87 87.94C89.67 87.97 77.3 87.91 64.74 87.97C70.92 70.85 76.94 53.64 83.31 35.92Z" fill="#F4EDE2" stroke="#F4EDE2" stroke-width="0.23" stroke-linecap="round" stroke-linejoin="round"/><path d="M0.09 88.15C30.91 87.87 71.56 88.28 99.82 88.05" fill="none" stroke="#F4EDE2" stroke-width="0.65" stroke-linecap="round" stroke-linejoin="round"/></g><text x="0" y="212" font-size="10" font-family="sans-serif" fill="#333">Hills</text><text x="216" y="212" text-anchor="end" font-size="9" font-family="monospace" fill="#999">4</text></g><g transform="translate(704,52)"><rect width="216" height="198" fill="#8C4A2F"/><g transform="translate(0,67.8) scale(2.16,0.624)"><path d="M8.35 42.92C11.42 57.78 14.56 72.59 17.75 87.96C11.56 87.94 5.28 87.96 -1.13 87.98C1.98 73.1 5.13 58.27 8.35 42.92Z" fill="#F4EDE2" stroke="#F4EDE2" stroke-width="0.23" stroke-linecap="round" stroke-linejoin="round"/><path d="M24.93 54.74C28.06 65.7 31.16 76.61 34.47 87.96C28.22 88.02 22.03 87.98 15.7 88.01C18.71 77.08 21.76 65.99 24.93 54.74Z" fill="#F4EDE2" stroke="#F4EDE2" stroke-width="0.23" stroke-linecap="round" stroke-linejoin="round"/><path d="M41.61 42.91C44.77 57.84 47.89 72.71 51.09 88.11C44.86 88.03 38.63 87.99 32.25 87.87C35.28 73.08 38.39 58.26 41.61 42.91Z" fill="#F4EDE2" stroke="#F4EDE2" stroke-width="0.23" stroke-linecap="round" stroke-linejoin="round"/><path d="M58.41 54.69C61.56 65.64 64.57 76.6 67.8 87.87C61.56 87.84 55.38 87.87 48.92 87.89C52.08 76.92 55.18 65.98 58.41 54.69Z" fill="#F4EDE2" stroke="#F4EDE2" stroke-width="0.23" stroke-linecap="round" stroke-linejoin="round"/><path d="M74.87 42.89C78 57.8 81.19 72.7 84.45 88.09C78.22 88.11 72.13 88.07 65.71 87.97C68.68 73.12 71.79 58.24 74.87 42.89Z" fill="#F4EDE2" stroke="#F4EDE2" stroke-width="0.23" stroke-linecap="round" stroke-linejoin="round"/><path d="M91.64 54.66C94.83 65.57 97.93 76.53 101.11 87.89C94.94 87.87 88.77 87.9 82.33 87.93C85.39 76.92 88.49 66.02 91.64 54.66Z" fill="#F4EDE2" stroke="#F4EDE2" stroke-width="0.23" stroke-linecap="round" stroke-linejoin="round"/><path d="M0.24 88.12C36.58 87.98 74.21 88.22 99.73 88.09" fill="none" stroke="#F4EDE2" stroke-width="0.65" stroke-linecap="round" stroke-linejoin="round"/></g><text x="0" y="212" font-size="10" font-family="sans-serif" fill="#333">Range</text><text x="216" y="212" text-anchor="end" font-size="9" font-family="monospace" fill="#999">7</text></g><g transform="translate(936,52)"><rect width="216" height="198" fill="#8C4A2F"/><g transform="translate(0,67.8) scale(2.16,0.624)"><path d="M72.91 21.94C73.09 21.43 73.53 19.45 73.96 18.88C74.39 18.31 75.02 18.19 75.5 18.5C75.97 18.81 76.48 19.61 76.8 20.73C77.11 21.86 77.4 23.67 77.38 25.25C77.36 26.83 76.94 28.83 76.7 30.2C76.45 31.56 76.29 32.86 75.9 33.45C75.51 34.04 74.81 34.1 74.36 33.74C73.92 33.39 73.51 32.52 73.22 31.34C72.92 30.15 72.66 28.2 72.59 26.63C72.52 25.07 72.75 22.73 72.78 21.95" fill="#F4EDE2" stroke="#F4EDE2" stroke-width="0.65" stroke-linecap="round" stroke-linejoin="round"/><path d="M24.97 36.11C34.31 53.21 43.55 70.31 53.1 87.98C34.6 88.03 16 88.11 -3.11 88.11C6.09 70.92 15.45 53.8 24.97 36.11Z" fill="#F4EDE2" stroke="#F4EDE2" stroke-width="0.23" stroke-linecap="round" stroke-linejoin="round"/><path d="M75.05 49.55C84.27 62.29 93.45 74.94 102.87 88.01C84.41 87.97 65.91 87.91 46.94 87.88C56.21 75.28 65.43 62.65 75.05 49.55Z" fill="#F4EDE2" stroke="#F4EDE2" stroke-width="0.23" stroke-linecap="round" stroke-linejoin="round"/><path d="M-0.15 87.74C32.6 87.9 62.35 87.98 99.85 87.75" fill="none" stroke="#F4EDE2" stroke-width="0.65" stroke-linecap="round" stroke-linejoin="round"/></g><text x="0" y="212" font-size="10" font-family="sans-serif" fill="#333">Hill with sun</text><text x="216" y="212" text-anchor="end" font-size="9" font-family="monospace" fill="#999">4</text></g><g transform="translate(8,284)"><rect width="216" height="198" fill="#8C4A2F"/><g transform="translate(0,72.6) scale(2.16,0.528)"><path d="M0.16 26.06C0.95 26.69 3.28 29.88 4.9 29.85C6.53 29.83 8.22 27.19 9.88 25.92C11.54 24.64 13.18 22.22 14.86 22.2C16.54 22.18 18.28 24.5 19.97 25.82C21.66 27.14 23.33 30.08 25.01 30.13C26.68 30.18 28.34 27.49 30.01 26.11C31.68 24.74 33.37 21.94 35.05 21.9C36.73 21.85 38.43 24.48 40.11 25.85C41.79 27.22 43.51 30.09 45.14 30.11C46.77 30.12 48.22 27.32 49.89 25.94C51.55 24.56 53.48 21.79 55.13 21.82C56.78 21.85 58.16 24.75 59.78 26.1C61.39 27.45 63.09 29.91 64.81 29.91C66.52 29.9 68.34 27.43 70.06 26.08C71.77 24.72 73.39 21.81 75.08 21.79C76.77 21.78 78.6 24.58 80.22 25.98C81.84 27.38 83.15 30.14 84.8 30.19C86.45 30.23 88.47 27.63 90.14 26.25C91.8 24.87 93.12 21.97 94.8 21.9C96.48 21.83 99.32 25.18 100.23 25.83" fill="none" stroke="#F4EDE2" stroke-width="0.65" stroke-linecap="round" stroke-linejoin="round"/><path d="M0.17 49.77C1 50.49 3.44 54.11 5.1 54.11C6.77 54.12 8.52 51.18 10.18 49.79C11.84 48.4 13.41 45.7 15.05 45.77C16.69 45.84 18.34 48.89 20.02 50.22C21.69 51.56 23.38 53.85 25.08 53.78C26.79 53.72 28.56 51.14 30.25 49.85C31.93 48.56 33.53 46.01 35.19 46.03C36.86 46.05 38.61 48.62 40.22 49.95C41.82 51.28 43.16 53.98 44.82 54.03C46.49 54.08 48.48 51.56 50.21 50.25C51.94 48.94 53.57 46.18 55.2 46.16C56.83 46.15 58.38 48.88 59.99 50.15C61.6 51.43 63.18 53.79 64.83 53.79C66.48 53.8 68.17 51.51 69.89 50.18C71.6 48.84 73.46 45.76 75.12 45.77C76.78 45.78 78.19 48.82 79.86 50.23C81.53 51.63 83.48 54.25 85.13 54.21C86.79 54.18 88.12 51.38 89.79 50.03C91.46 48.69 93.43 46.12 95.16 46.14C96.88 46.17 99.31 49.53 100.14 50.21" fill="none" stroke="#F4EDE2" stroke-width="0.65" stroke-linecap="round" stroke-linejoin="round"/><path d="M0.03 73.85C0.87 74.53 3.38 77.88 5.07 77.92C6.77 77.97 8.55 75.49 10.22 74.13C11.9 72.77 13.47 69.79 15.12 69.78C16.76 69.77 18.44 72.7 20.11 74.06C21.79 75.42 23.48 77.97 25.17 77.95C26.85 77.93 28.56 75.28 30.22 73.94C31.88 72.6 33.51 69.88 35.14 69.92C36.77 69.97 38.35 72.87 40 74.22C41.65 75.57 43.33 78.1 45.03 78.02C46.73 77.95 48.53 75.11 50.2 73.77C51.86 72.42 53.39 69.89 55.03 69.94C56.67 70 58.37 72.78 60.02 74.09C61.68 75.39 63.29 77.77 64.93 77.78C66.58 77.79 68.24 75.46 69.9 74.15C71.56 72.84 73.19 69.93 74.89 69.91C76.6 69.88 78.46 72.61 80.14 73.99C81.81 75.37 83.24 78.19 84.92 78.19C86.6 78.19 88.52 75.32 90.21 73.99C91.89 72.66 93.38 70.19 95.04 70.21C96.69 70.23 99.29 73.45 100.14 74.1" fill="none" stroke="#F4EDE2" stroke-width="0.65" stroke-linecap="round" stroke-linejoin="round"/></g><text x="0" y="212" font-size="10" font-family="sans-serif" fill="#333">River</text><text x="216" y="212" text-anchor="end" font-size="9" font-family="monospace" fill="#999">3</text></g><g transform="translate(240,284)"><rect width="216" height="198" fill="#8C4A2F"/><g transform="translate(0,72.6) scale(2.16,0.528)"><path d="M-0.14 26.15C0.95 26.8 4.29 30.07 6.38 30.06C8.46 30.06 10.34 27.46 12.38 26.09C14.42 24.72 16.53 21.87 18.63 21.84C20.73 21.8 22.9 24.54 24.98 25.89C27.06 27.25 29.05 29.99 31.12 29.98C33.19 29.97 35.32 27.13 37.42 25.82C39.53 24.51 41.61 22.07 43.75 22.11C45.88 22.16 48.14 24.74 50.23 26.08C52.33 27.41 54.27 30.1 56.31 30.1C58.34 30.1 60.37 27.42 62.46 26.07C64.55 24.71 66.75 21.96 68.86 21.95C70.96 21.95 73.04 24.67 75.12 26.05C77.2 27.43 79.3 30.21 81.33 30.21C83.36 30.22 85.21 27.44 87.28 26.07C89.34 24.71 91.61 22.05 93.73 22.04C95.85 22.02 98.95 25.33 99.99 25.99" fill="none" stroke="#F4EDE2" stroke-width="0.65" stroke-linecap="round" stroke-linejoin="round"/><path d="M0.11 35.48C1.12 36.2 4.1 39.78 6.2 39.82C8.29 39.85 10.59 37.05 12.68 35.69C14.76 34.33 16.63 31.71 18.7 31.67C20.77 31.63 23.02 34.08 25.1 35.43C27.19 36.78 29.16 39.72 31.2 39.75C33.24 39.78 35.23 36.97 37.34 35.62C39.46 34.26 41.82 31.64 43.91 31.65C46.01 31.66 47.85 34.35 49.93 35.67C52.01 36.99 54.32 39.61 56.4 39.56C58.48 39.5 60.33 36.72 62.43 35.36C64.52 34 66.91 31.34 68.98 31.4C71.05 31.46 72.8 34.4 74.85 35.74C76.9 37.08 79.21 39.51 81.28 39.44C83.36 39.38 85.18 36.64 87.3 35.35C89.42 34.06 91.89 31.65 93.98 31.69C96.08 31.73 98.87 34.93 99.85 35.58" fill="none" stroke="#F4EDE2" stroke-width="0.65" stroke-linecap="round" stroke-linejoin="round"/><path d="M0.24 45.32C1.28 45.99 4.42 49.41 6.48 49.37C8.54 49.33 10.56 46.46 12.6 45.08C14.63 43.69 16.64 41.05 18.7 41.05C20.75 41.06 22.83 43.69 24.94 45.09C27.05 46.49 29.28 49.4 31.36 49.44C33.44 49.49 35.36 46.74 37.43 45.35C39.5 43.96 41.65 41.12 43.77 41.12C45.89 41.11 48.08 44 50.15 45.31C52.21 46.63 54.08 49.03 56.17 49.02C58.27 49.01 60.62 46.58 62.73 45.26C64.83 43.93 66.72 41.09 68.8 41.07C70.88 41.05 73.19 43.81 75.22 45.14C77.25 46.48 78.98 49.06 81 49.08C83.02 49.1 85.16 46.61 87.32 45.27C89.48 43.92 91.88 41.04 93.98 41.01C96.07 40.98 98.89 44.42 99.88 45.11" fill="none" stroke="#F4EDE2" stroke-width="0.65" stroke-linecap="round" stroke-linejoin="round"/><path d="M0.07 54.87C1.11 55.54 4.22 58.92 6.31 58.88C8.4 58.84 10.52 55.94 12.6 54.62C14.68 53.3 16.78 50.96 18.81 50.96C20.83 50.96 22.68 53.28 24.78 54.63C26.87 55.97 29.2 58.98 31.36 59.03C33.51 59.07 35.67 56.27 37.7 54.9C39.73 53.52 41.51 50.78 43.55 50.77C45.58 50.76 47.79 53.46 49.9 54.84C52.01 56.21 54.16 59 56.22 59.02C58.28 59.04 60.22 56.33 62.27 54.96C64.32 53.59 66.41 50.79 68.55 50.8C70.68 50.82 72.98 53.73 75.08 55.05C77.19 56.37 79.11 58.75 81.2 58.74C83.3 58.72 85.53 56.31 87.64 54.97C89.75 53.63 91.82 50.7 93.85 50.7C95.87 50.7 98.82 54.28 99.82 55" fill="none" stroke="#F4EDE2" stroke-width="0.65" stroke-linecap="round" stroke-linejoin="round"/><path d="M-0.24 64.37C0.81 65.01 3.92 68.21 6.03 68.22C8.14 68.23 10.32 65.7 12.41 64.43C14.51 63.16 16.52 60.63 18.62 60.61C20.72 60.59 22.95 63.02 25.02 64.33C27.08 65.64 28.89 68.49 31 68.48C33.12 68.47 35.61 65.63 37.71 64.28C39.81 62.93 41.58 60.38 43.59 60.39C45.6 60.41 47.7 63.02 49.77 64.38C51.85 65.73 53.87 68.46 56.03 68.5C58.18 68.53 60.57 65.94 62.69 64.59C64.82 63.25 66.77 60.46 68.79 60.42C70.8 60.38 72.7 63.07 74.8 64.36C76.89 65.65 79.24 68.12 81.36 68.16C83.49 68.19 85.47 65.89 87.55 64.6C89.63 63.31 91.79 60.47 93.85 60.4C95.9 60.34 98.88 63.58 99.89 64.21" fill="none" stroke="#F4EDE2" stroke-width="0.65" stroke-linecap="round" stroke-linejoin="round"/><path d="M-0.07 73.87C1 74.53 4.21 77.87 6.31 77.87C8.42 77.87 10.51 75.19 12.58 73.87C14.65 72.55 16.64 69.95 18.74 69.96C20.85 69.97 23.14 72.62 25.21 73.95C27.28 75.28 29.09 77.9 31.15 77.93C33.22 77.97 35.49 75.51 37.61 74.15C39.72 72.8 41.81 69.8 43.85 69.81C45.89 69.81 47.78 72.86 49.86 74.19C51.94 75.52 54.27 77.8 56.35 77.8C58.43 77.81 60.29 75.51 62.34 74.21C64.39 72.91 66.5 70.06 68.64 69.99C70.78 69.91 73.08 72.45 75.18 73.76C77.28 75.07 79.2 77.86 81.24 77.86C83.27 77.87 85.34 75.09 87.39 73.79C89.43 72.5 91.43 70.1 93.51 70.11C95.59 70.12 98.82 73.24 99.88 73.86" fill="none" stroke="#F4EDE2" stroke-width="0.65" stroke-linecap="round" stroke-linejoin="round"/></g><text x="0" y="212" font-size="10" font-family="sans-serif" fill="#333">Wide water</text><text x="216" y="212" text-anchor="end" font-size="9" font-family="monospace" fill="#999">6</text></g><g transform="translate(472,284)"><rect width="216" height="198" fill="#8C4A2F"/><g transform="translate(0,72.6) scale(2.16,0.528)"><path d="M-0.15 26.17C0.7 26.83 3.25 30.16 4.98 30.12C6.71 30.08 8.58 27.26 10.23 25.93C11.87 24.61 13.23 22.14 14.86 22.18C16.5 22.22 18.39 24.85 20.05 26.17C21.71 27.49 23.21 30.15 24.83 30.09C26.45 30.03 28.1 27.16 29.78 25.81C31.46 24.46 33.23 22.01 34.91 22C36.59 21.99 38.19 24.46 39.84 25.76C41.49 27.06 43.08 29.81 44.79 29.81C46.5 29.82 48.43 27.07 50.11 25.77C51.8 24.48 53.21 21.99 54.9 22.04C56.59 22.1 58.58 24.83 60.24 26.13C61.9 27.42 63.21 29.83 64.84 29.83C66.47 29.83 68.33 27.44 70.03 26.12C71.74 24.8 73.41 21.91 75.05 21.9C76.69 21.89 78.21 24.66 79.86 26.05C81.51 27.45 83.24 30.26 84.94 30.25C86.64 30.24 88.42 27.39 90.06 25.99C91.7 24.6 93.09 21.9 94.77 21.88C96.46 21.87 99.27 25.23 100.16 25.9" fill="none" stroke="#F4EDE2" stroke-width="0.65" stroke-linecap="round" stroke-linejoin="round"/><path d="M-0.09 49.85C0.77 50.57 3.43 54.11 5.07 54.18C6.72 54.24 8.16 51.63 9.78 50.25C11.41 48.87 13.16 45.94 14.83 45.88C16.51 45.82 18.15 48.55 19.86 49.91C21.56 51.27 23.37 54 25.06 54.04C26.75 54.08 28.34 51.5 30.01 50.15C31.68 48.81 33.41 46 35.1 45.96C36.79 45.92 38.48 48.58 40.16 49.92C41.83 51.26 43.55 53.98 45.15 53.98C46.75 53.98 48.1 51.25 49.75 49.92C51.4 48.6 53.34 45.99 55.05 46.02C56.77 46.05 58.39 48.8 60.04 50.11C61.69 51.42 63.31 53.89 64.94 53.89C66.57 53.89 68.15 51.46 69.82 50.11C71.49 48.77 73.3 45.85 74.96 45.82C76.61 45.79 78.08 48.58 79.76 49.92C81.43 51.26 83.33 53.87 85.02 53.85C86.72 53.82 88.21 51.08 89.91 49.78C91.62 48.48 93.56 45.98 95.24 46.04C96.91 46.1 99.19 49.44 99.98 50.12" fill="none" stroke="#F4EDE2" stroke-width="0.65" stroke-linecap="round" stroke-linejoin="round"/><path d="M-0.19 73.83C0.67 74.53 3.3 77.95 4.99 78C6.69 78.05 8.27 75.44 9.96 74.14C11.64 72.84 13.46 70.27 15.09 70.22C16.73 70.16 18.1 72.5 19.75 73.82C21.4 75.13 23.27 78.09 25 78.1C26.73 78.12 28.48 75.29 30.12 73.9C31.77 72.51 33.26 69.76 34.87 69.76C36.48 69.75 38.13 72.52 39.79 73.88C41.46 75.23 43.14 77.89 44.86 77.88C46.58 77.86 48.4 75.12 50.12 73.79C51.84 72.45 53.54 69.82 55.16 69.86C56.78 69.9 58.18 72.64 59.84 74.03C61.49 75.42 63.42 78.25 65.08 78.22C66.73 78.19 68.13 75.22 69.76 73.83C71.4 72.45 73.2 69.89 74.88 69.92C76.55 69.95 78.13 72.63 79.82 74C81.5 75.36 83.31 78.13 85 78.13C86.68 78.12 88.23 75.36 89.93 73.98C91.63 72.59 93.53 69.82 95.2 69.81C96.87 69.79 99.14 73.2 99.93 73.88" fill="none" stroke="#F4EDE2" stroke-width="0.65" stroke-linecap="round" stroke-linejoin="round"/><path d="M18.29 16.09C22.38 14.28 26.53 12.41 30.68 10.48C33.11 12.35 35.48 14.08 37.89 16.01C35.56 17.81 33.16 19.59 30.71 21.52C26.63 19.75 22.55 17.99 18.29 16.09Z" fill="#F4EDE2" stroke="#F4EDE2" stroke-width="0.23" stroke-linecap="round" stroke-linejoin="round"/><path d="M36.98 16.04C39.04 14.38 41.27 12.8 43.39 11.23C43.42 14.36 43.35 17.6 43.35 20.91C41.27 19.3 39.19 17.69 36.98 16.04Z" fill="#F4EDE2" stroke="#F4EDE2" stroke-width="0.23" stroke-linecap="round" stroke-linejoin="round"/><path d="M57.73 86.03C61.21 84.54 64.68 82.94 68.28 81.31C70.27 82.85 72.32 84.34 74.44 85.98C72.47 87.48 70.46 89.09 68.32 90.69C64.75 89.18 61.26 87.63 57.73 86.03Z" fill="#F4EDE2" stroke="#F4EDE2" stroke-width="0.23" stroke-linecap="round" stroke-linejoin="round"/><path d="M73.93 85.93C75.74 84.63 77.47 83.22 79.34 81.81C79.18 84.55 79.17 87.3 79.06 90.19C77.41 88.85 75.74 87.44 73.93 85.93Z" fill="#F4EDE2" stroke="#F4EDE2" stroke-width="0.23" stroke-linecap="round" stroke-linejoin="round"/></g><text x="0" y="212" font-size="10" font-family="sans-serif" fill="#333">River with fish</text><text x="216" y="212" text-anchor="end" font-size="9" font-family="monospace" fill="#999">7</text></g><g transform="translate(704,284)"><rect width="216" height="198" fill="#8C4A2F"/><g transform="translate(0,72.6) scale(2.16,0.528)"><path d="M-0.12 26.02C0.94 26.71 4.11 30.17 6.21 30.15C8.31 30.14 10.41 27.24 12.49 25.92C14.58 24.6 16.65 22.17 18.71 22.21C20.76 22.25 22.77 24.84 24.83 26.17C26.89 27.49 28.95 30.14 31.05 30.15C33.16 30.17 35.36 27.61 37.45 26.24C39.54 24.88 41.52 22.02 43.6 21.95C45.68 21.88 47.78 24.51 49.93 25.83C52.08 27.15 54.37 29.85 56.49 29.86C58.6 29.87 60.61 27.22 62.61 25.9C64.62 24.57 66.43 21.91 68.51 21.9C70.58 21.89 72.9 24.51 75.05 25.84C77.2 27.16 79.38 29.84 81.41 29.84C83.45 29.83 85.16 27.13 87.25 25.81C89.34 24.49 91.85 21.87 93.95 21.92C96.06 21.97 98.9 25.42 99.89 26.12" fill="none" stroke="#F4EDE2" stroke-width="0.65" stroke-linecap="round" stroke-linejoin="round"/><path d="M0.19 41.93C1.19 42.64 4.06 46.19 6.14 46.18C8.23 46.18 10.59 43.23 12.71 41.89C14.82 40.56 16.8 38.19 18.84 38.18C20.87 38.16 22.86 40.46 24.91 41.78C26.96 43.1 29.06 46.08 31.14 46.12C33.23 46.16 35.31 43.37 37.44 42.04C39.57 40.71 41.81 38.14 43.94 38.15C46.08 38.17 48.23 40.78 50.24 42.11C52.26 43.44 53.97 46.15 56.05 46.13C58.14 46.11 60.59 43.38 62.75 41.99C64.9 40.61 66.95 37.77 68.97 37.8C71 37.83 72.86 40.82 74.89 42.16C76.92 43.5 79.1 45.84 81.17 45.83C83.24 45.82 85.21 43.4 87.31 42.08C89.41 40.76 91.67 37.89 93.75 37.92C95.83 37.94 98.79 41.51 99.8 42.23" fill="none" stroke="#F4EDE2" stroke-width="0.65" stroke-linecap="round" stroke-linejoin="round"/><path d="M-0.22 58.17C0.82 58.79 3.89 61.86 6.03 61.87C8.17 61.88 10.5 59.58 12.64 58.24C14.77 56.91 16.78 53.88 18.87 53.86C20.95 53.84 23.08 56.77 25.16 58.1C27.23 59.44 29.29 61.91 31.33 61.89C33.37 61.87 35.32 59.29 37.4 57.98C39.48 56.66 41.69 54.03 43.81 54C45.93 53.96 48.1 56.46 50.13 57.79C52.17 59.12 53.99 61.98 56.01 61.98C58.03 61.98 60.13 59.1 62.27 57.79C64.42 56.48 66.73 54.09 68.89 54.13C71.05 54.17 73.17 56.7 75.23 58.04C77.28 59.37 79.17 62.13 81.22 62.15C83.28 62.17 85.46 59.5 87.53 58.15C89.6 56.8 91.56 54.04 93.64 54.05C95.72 54.07 98.94 57.53 100 58.23" fill="none" stroke="#F4EDE2" stroke-width="0.65" stroke-linecap="round" stroke-linejoin="round"/><path d="M0.03 74.06C1.07 74.69 4.18 77.82 6.27 77.81C8.35 77.79 10.42 75.3 12.53 73.99C14.64 72.67 16.9 69.92 18.94 69.92C20.99 69.92 22.74 72.64 24.8 73.99C26.86 75.34 29.2 78.06 31.29 78.03C33.39 78 35.26 75.15 37.34 73.81C39.43 72.47 41.69 69.97 43.8 70C45.92 70.02 47.97 72.59 50.03 73.96C52.09 75.32 54.06 78.19 56.17 78.2C58.28 78.21 60.59 75.4 62.68 74.02C64.76 72.64 66.62 69.87 68.68 69.9C70.74 69.93 72.94 72.81 75.04 74.19C77.14 75.57 79.22 78.19 81.27 78.18C83.32 78.17 85.21 75.48 87.33 74.12C89.46 72.75 91.88 70.01 93.99 69.98C96.1 69.95 98.99 73.27 99.99 73.92" fill="none" stroke="#F4EDE2" stroke-width="0.65" stroke-linecap="round" stroke-linejoin="round"/><path d="M31.97 11.91C43.81 12.01 55.66 12.05 67.93 12.08C66.03 15.34 64.07 18.63 62.07 21.92C54.22 21.9 46.23 21.95 38.11 21.99C36.13 18.6 34.12 15.37 31.97 11.91Z" fill="#F4EDE2" stroke="#F4EDE2" stroke-width="0.23" stroke-linecap="round" stroke-linejoin="round"/><path d="M50.22 11.97C49.98 5.43 50.29 0.16 50.18 -4.2" fill="none" stroke="#F4EDE2" stroke-width="0.78" stroke-linecap="round" stroke-linejoin="round"/><path d="M42.99 -4.61C43.04 -4.72 43.11 -5.16 43.31 -5.32C43.51 -5.48 43.9 -5.65 44.2 -5.56C44.5 -5.46 44.95 -5.03 45.11 -4.75C45.27 -4.47 45.16 -4.11 45.14 -3.88C45.12 -3.65 45.16 -3.53 44.99 -3.37C44.83 -3.21 44.39 -2.96 44.13 -2.92C43.88 -2.89 43.71 -3.05 43.45 -3.19C43.18 -3.33 42.69 -3.46 42.55 -3.76C42.41 -4.06 42.6 -4.78 42.6 -4.98" fill="#F4EDE2" stroke="#F4EDE2" stroke-width="0.65" stroke-linecap="round" stroke-linejoin="round"/><path d="M41.55 -2.95C43.19 -2.9 44.75 -2.88 46.44 -2.87C45.63 -0.98 44.86 0.91 43.96 2.9C43.11 0.96 42.39 -0.92 41.55 -2.95Z" fill="#F4EDE2" stroke="#F4EDE2" stroke-width="0.23" stroke-linecap="round" stroke-linejoin="round"/><path d="M44.04 2.89C44.66 4.55 45.3 6.24 45.89 8.01C44.6 7.88 43.35 7.94 41.95 7.82C42.63 6.21 43.35 4.51 44.04 2.89Z" fill="#F4EDE2" stroke="#F4EDE2" stroke-width="0.23" stroke-linecap="round" stroke-linejoin="round"/><path d="M41.9 -2.79C41.56 -2.02 40.74 -0.74 40.42 -0.34" fill="none" stroke="#F4EDE2" stroke-width="0.33" stroke-linecap="round" stroke-linejoin="round"/><path d="M40.43 -0.2C39.92 1.19 40.12 2.23 40.07 3.33" fill="none" stroke="#F4EDE2" stroke-width="0.33" stroke-linecap="round" stroke-linejoin="round"/><path d="M46.02 -2.93C46.39 -1.88 47.19 -0.75 47.4 -0.28" fill="none" stroke="#F4EDE2" stroke-width="0.33" stroke-linecap="round" stroke-linejoin="round"/><path d="M47.88 -0.17C47.64 0.99 47.75 2.41 48.4 3.03" fill="none" stroke="#F4EDE2" stroke-width="0.33" stroke-linecap="round" stroke-linejoin="round"/><path d="M42.52 8.03C42.28 9.36 42.62 10.27 42.43 11.81" fill="none" stroke="#F4EDE2" stroke-width="0.33" stroke-linecap="round" stroke-linejoin="round"/><path d="M42.38 11.66C42.57 13.04 42.29 13.88 42.17 15.64" fill="none" stroke="#F4EDE2" stroke-width="0.33" stroke-linecap="round" stroke-linejoin="round"/><path d="M45.2 7.88C45.28 8.97 45.73 10.56 45.31 11.52" fill="none" stroke="#F4EDE2" stroke-width="0.33" stroke-linecap="round" stroke-linejoin="round"/><path d="M45.8 11.37C45.44 13.03 45.85 14.61 45.63 15.4" fill="none" stroke="#F4EDE2" stroke-width="0.33" stroke-linecap="round" stroke-linejoin="round"/></g><text x="0" y="212" font-size="10" font-family="sans-serif" fill="#333">The crossing</text><text x="216" y="212" text-anchor="end" font-size="9" font-family="monospace" fill="#999">17</text></g><g transform="translate(936,284)"><rect width="216" height="198" fill="#8C4A2F"/><g transform="translate(0,-9) scale(2.16,2.16)"><path d="M35.24 45.08C44.98 45.04 54.71 44.95 64.82 44.81C64.35 48.14 63.79 51.43 63.32 54.89C54.46 54.9 45.53 54.99 36.33 54.94C35.93 51.69 35.58 48.43 35.24 45.08Z" fill="#F4EDE2" stroke="#F4EDE2" stroke-width="0.23" stroke-linecap="round" stroke-linejoin="round"/><path d="M39.07 54.97C38.69 57.85 38.02 60.63 38.16 62.52" fill="none" stroke="#F4EDE2" stroke-width="0.57" stroke-linecap="round" stroke-linejoin="round"/><path d="M37.73 62.87C37.48 65.1 37.59 68.21 36.99 69.64" fill="none" stroke="#F4EDE2" stroke-width="0.57" stroke-linecap="round" stroke-linejoin="round"/><path d="M44.5 54.86C43.87 58.18 43.78 60.6 43.48 62.81" fill="none" stroke="#F4EDE2" stroke-width="0.57" stroke-linecap="round" stroke-linejoin="round"/><path d="M43.28 62.74C42.84 64.52 42.73 67.59 42.31 69.89" fill="none" stroke="#F4EDE2" stroke-width="0.57" stroke-linecap="round" stroke-linejoin="round"/><path d="M55.92 54.9C56.07 57.02 56.65 60.15 57.3 62.79" fill="none" stroke="#F4EDE2" stroke-width="0.57" stroke-linecap="round" stroke-linejoin="round"/><path d="M56.98 62.83C57.33 65.68 57.37 68.13 57.59 69.85" fill="none" stroke="#F4EDE2" stroke-width="0.57" stroke-linecap="round" stroke-linejoin="round"/><path d="M61.26 54.65C61.37 57.48 61.91 60.8 62.56 62.48" fill="none" stroke="#F4EDE2" stroke-width="0.57" stroke-linecap="round" stroke-linejoin="round"/><path d="M62.32 62.9C62.75 66 63.02 67.65 63.33 69.66" fill="none" stroke="#F4EDE2" stroke-width="0.57" stroke-linecap="round" stroke-linejoin="round"/><path d="M62.14 47.02C64.33 43.87 68.51 39.29 71.27 36.22" fill="none" stroke="#F4EDE2" stroke-width="1.25" stroke-linecap="round" stroke-linejoin="round"/><path d="M67.83 39.52C70.71 38.85 73.67 38.31 76.66 37.67C76.23 36.5 75.74 35.34 75.3 34.23C73.01 34 70.69 33.59 68.31 33.34C68.19 35.42 68.01 37.44 67.83 39.52Z" fill="#F4EDE2" stroke="#F4EDE2" stroke-width="0.23" stroke-linecap="round" stroke-linejoin="round"/><path d="M70.22 32.04C68.98 29.5 67 26.13 65.82 24.05" fill="none" stroke="#F4EDE2" stroke-width="0.57" stroke-linecap="round" stroke-linejoin="round"/><path d="M72.59 33.16C73.93 30.52 75.8 27.68 77.21 24.94" fill="none" stroke="#F4EDE2" stroke-width="0.57" stroke-linecap="round" stroke-linejoin="round"/><path d="M35.03 48.1C32.38 51.54 29.65 54.77 27.04 57.64" fill="none" stroke="#F4EDE2" stroke-width="0.57" stroke-linecap="round" stroke-linejoin="round"/></g><text x="0" y="212" font-size="10" font-family="sans-serif" fill="#333">Cow</text><text x="216" y="212" text-anchor="end" font-size="9" font-family="monospace" fill="#999">14</text></g><g transform="translate(8,516)"><rect width="216" height="198" fill="#8C4A2F"/><g transform="translate(0,-9) scale(2.16,2.16)"><path d="M35.05 45.3C44.92 45.2 54.77 44.94 64.9 44.81C64.4 48.08 63.98 51.28 63.5 54.7C54.59 54.74 45.6 54.84 36.45 54.82C35.92 51.7 35.53 48.48 35.05 45.3Z" fill="#F4EDE2" stroke="#F4EDE2" stroke-width="0.23" stroke-linecap="round" stroke-linejoin="round"/><path d="M39.24 54.74C39.08 57.23 37.96 61.15 37.76 62.78" fill="none" stroke="#F4EDE2" stroke-width="0.57" stroke-linecap="round" stroke-linejoin="round"/><path d="M38.04 62.85C37.43 65.87 37.52 67.93 37.09 69.82" fill="none" stroke="#F4EDE2" stroke-width="0.57" stroke-linecap="round" stroke-linejoin="round"/><path d="M44.81 54.96C44.36 57.49 43.58 60.71 43.02 62.9" fill="none" stroke="#F4EDE2" stroke-width="0.57" stroke-linecap="round" stroke-linejoin="round"/><path d="M43.29 62.43C42.99 64.83 42.96 67.41 42.74 69.66" fill="none" stroke="#F4EDE2" stroke-width="0.57" stroke-linecap="round" stroke-linejoin="round"/><path d="M55.4 54.78C56.09 57.23 56.72 60 56.81 62.5" fill="none" stroke="#F4EDE2" stroke-width="0.57" stroke-linecap="round" stroke-linejoin="round"/><path d="M57.05 62.79C57.61 65.74 57.7 68.37 58.01 69.58" fill="none" stroke="#F4EDE2" stroke-width="0.57" stroke-linecap="round" stroke-linejoin="round"/><path d="M60.95 55.02C61.57 57.25 62.12 60.75 62.3 62.74" fill="none" stroke="#F4EDE2" stroke-width="0.57" stroke-linecap="round" stroke-linejoin="round"/><path d="M62.66 62.75C62.79 65.68 62.93 67.13 63.31 69.6" fill="none" stroke="#F4EDE2" stroke-width="0.57" stroke-linecap="round" stroke-linejoin="round"/><path d="M61.69 47.21C65.74 42.44 68 40.06 70.98 36.24" fill="none" stroke="#F4EDE2" stroke-width="1.25" stroke-linecap="round" stroke-linejoin="round"/><path d="M68.01 39.46C70.81 38.87 73.63 38.37 76.55 37.78C76.12 36.66 75.79 35.49 75.4 34.21C73.09 33.94 70.79 33.54 68.35 33.24C68.19 35.31 68.06 37.37 68.01 39.46Z" fill="#F4EDE2" stroke="#F4EDE2" stroke-width="0.23" stroke-linecap="round" stroke-linejoin="round"/><path d="M69.86 31.91C68.59 29.46 67.14 26.35 65.6 23.96" fill="none" stroke="#F4EDE2" stroke-width="0.57" stroke-linecap="round" stroke-linejoin="round"/><path d="M72.56 32.92C74.51 29.41 75.84 27.36 77.24 25.34" fill="none" stroke="#F4EDE2" stroke-width="0.57" stroke-linecap="round" stroke-linejoin="round"/><path d="M51.45 45.06C54.04 45.06 56.53 45.12 59.21 45.16C57.88 43.15 56.61 41.1 55.32 39.03C53.98 41.04 52.75 43.06 51.45 45.06Z" fill="#F4EDE2" stroke="#F4EDE2" stroke-width="0.23" stroke-linecap="round" stroke-linejoin="round"/><path d="M35.2 48.16C32.25 51.66 30.4 54.05 27.38 57.82" fill="none" stroke="#F4EDE2" stroke-width="0.57" stroke-linecap="round" stroke-linejoin="round"/></g><text x="0" y="212" font-size="10" font-family="sans-serif" fill="#333">Bull</text><text x="216" y="212" text-anchor="end" font-size="9" font-family="monospace" fill="#999">15</text></g><g transform="translate(240,516)"><rect width="216" height="198" fill="#8C4A2F"/><g transform="translate(0,-9) scale(2.16,2.16)"><path d="M34.99 45.22C44.8 45.05 54.72 45.01 64.92 44.81C64.45 48.08 63.82 51.39 63.31 54.73C54.39 54.74 45.48 54.87 36.23 54.94C35.82 51.77 35.37 48.55 34.99 45.22Z" fill="#F4EDE2" stroke="#F4EDE2" stroke-width="0.23" stroke-linecap="round" stroke-linejoin="round"/><path d="M39.54 54.72C38.52 58.38 38.32 60.48 37.89 62.77" fill="none" stroke="#F4EDE2" stroke-width="0.57" stroke-linecap="round" stroke-linejoin="round"/><path d="M37.75 62.82C37.64 64.67 37.56 67.96 37.07 69.67" fill="none" stroke="#F4EDE2" stroke-width="0.57" stroke-linecap="round" stroke-linejoin="round"/><path d="M44.92 54.62C44.04 57.87 43.32 60.62 43.12 62.85" fill="none" stroke="#F4EDE2" stroke-width="0.57" stroke-linecap="round" stroke-linejoin="round"/><path d="M43.37 62.75C42.83 64.99 42.57 67.72 42.75 69.64" fill="none" stroke="#F4EDE2" stroke-width="0.57" stroke-linecap="round" stroke-linejoin="round"/><path d="M55.83 54.61C56.37 58.25 56.5 59.7 57.14 62.85" fill="none" stroke="#F4EDE2" stroke-width="0.57" stroke-linecap="round" stroke-linejoin="round"/><path d="M57.08 62.62C57.58 65.41 57.56 67.74 57.6 69.62" fill="none" stroke="#F4EDE2" stroke-width="0.57" stroke-linecap="round" stroke-linejoin="round"/><path d="M61.2 54.56C61.45 57.74 61.83 59.67 62.18 62.95" fill="none" stroke="#F4EDE2" stroke-width="0.57" stroke-linecap="round" stroke-linejoin="round"/><path d="M62.34 62.41C62.76 65.05 63.05 67.98 63.2 69.67" fill="none" stroke="#F4EDE2" stroke-width="0.57" stroke-linecap="round" stroke-linejoin="round"/><path d="M61.89 47.2C65.36 42.61 68.24 39.73 71 36.46" fill="none" stroke="#F4EDE2" stroke-width="1.25" stroke-linecap="round" stroke-linejoin="round"/><path d="M67.89 39.55C70.78 38.91 73.78 38.33 76.8 37.75C76.3 36.53 75.93 35.44 75.42 34.17C73.11 33.78 70.69 33.57 68.3 33.17C68.18 35.33 67.96 37.37 67.89 39.55Z" fill="#F4EDE2" stroke="#F4EDE2" stroke-width="0.23" stroke-linecap="round" stroke-linejoin="round"/><path d="M70.79 32.82C69.78 30.56 68.52 27.7 67.32 26" fill="none" stroke="#F4EDE2" stroke-width="0.57" stroke-linecap="round" stroke-linejoin="round"/><path d="M68.15 39.95C68.1 42.09 67.47 43.92 67.36 44.95" fill="none" stroke="#F4EDE2" stroke-width="0.57" stroke-linecap="round" stroke-linejoin="round"/><path d="M35.21 47.73C33.84 46.51 27.49 42.31 27.03 40.36C26.57 38.41 31.54 36.75 32.45 36.03" fill="none" stroke="#F4EDE2" stroke-width="0.57" stroke-linecap="round" stroke-linejoin="round"/></g><text x="0" y="212" font-size="10" font-family="sans-serif" fill="#333">Goat</text><text x="216" y="212" text-anchor="end" font-size="9" font-family="monospace" fill="#999">14</text></g><g transform="translate(472,516)"><rect width="216" height="198" fill="#8C4A2F"/><g transform="translate(0,-9) scale(2.16,2.16)"><path d="M35.18 45.1C44.95 44.94 54.75 44.86 64.82 44.67C64.41 48.05 63.92 51.36 63.52 54.78C54.47 54.79 45.54 54.77 36.28 54.76C35.96 51.61 35.59 48.38 35.18 45.1Z" fill="#F4EDE2" stroke="#F4EDE2" stroke-width="0.23" stroke-linecap="round" stroke-linejoin="round"/><path d="M39.05 54.57C38.62 57.63 38.21 59.85 37.87 62.63" fill="none" stroke="#F4EDE2" stroke-width="0.57" stroke-linecap="round" stroke-linejoin="round"/><path d="M37.84 62.82C37.48 65.25 37.25 67.88 37.09 69.8" fill="none" stroke="#F4EDE2" stroke-width="0.57" stroke-linecap="round" stroke-linejoin="round"/><path d="M44.87 54.86C44.15 57.14 43.53 60.2 43.12 62.81" fill="none" stroke="#F4EDE2" stroke-width="0.57" stroke-linecap="round" stroke-linejoin="round"/><path d="M43.19 62.89C42.7 65.56 42.52 67.29 42.7 69.46" fill="none" stroke="#F4EDE2" stroke-width="0.57" stroke-linecap="round" stroke-linejoin="round"/><path d="M55.9 54.93C56.09 58.1 56.28 59.84 57.1 62.53" fill="none" stroke="#F4EDE2" stroke-width="0.57" stroke-linecap="round" stroke-linejoin="round"/><path d="M57.06 62.67C57.04 65.5 57.35 67.71 57.48 69.57" fill="none" stroke="#F4EDE2" stroke-width="0.57" stroke-linecap="round" stroke-linejoin="round"/><path d="M60.8 54.59C61.49 57.12 62 61.03 62.42 62.59" fill="none" stroke="#F4EDE2" stroke-width="0.57" stroke-linecap="round" stroke-linejoin="round"/><path d="M62.22 62.7C62.91 65.48 63.05 67.9 62.98 69.79" fill="none" stroke="#F4EDE2" stroke-width="0.57" stroke-linecap="round" stroke-linejoin="round"/><path d="M61.89 46.9C64.83 43.7 67.73 40.22 71.16 36.59" fill="none" stroke="#F4EDE2" stroke-width="1.25" stroke-linecap="round" stroke-linejoin="round"/><path d="M68.02 39.41C70.88 38.85 73.86 38.17 76.81 37.59C76.36 36.5 75.83 35.36 75.38 34.27C73.05 33.89 70.8 33.57 68.39 33.21C68.29 35.29 68.1 37.32 68.02 39.41Z" fill="#F4EDE2" stroke="#F4EDE2" stroke-width="0.23" stroke-linecap="round" stroke-linejoin="round"/><path d="M69.01 32.25C68.2 28.61 66.36 24.22 65.87 21.68" fill="none" stroke="#F4EDE2" stroke-width="0.57" stroke-linecap="round" stroke-linejoin="round"/><path d="M66.82 26.94C65.62 25.95 63.51 25.32 61.35 24.33" fill="none" stroke="#F4EDE2" stroke-width="0.57" stroke-linecap="round" stroke-linejoin="round"/><path d="M72.66 32.12C74.1 27.79 75.5 24.53 76.04 21.61" fill="none" stroke="#F4EDE2" stroke-width="0.57" stroke-linecap="round" stroke-linejoin="round"/><path d="M75.02 26.81C77.32 25.97 79.07 24.77 80.39 24.06" fill="none" stroke="#F4EDE2" stroke-width="0.57" stroke-linecap="round" stroke-linejoin="round"/><path d="M35.22 48.09C32.04 51.93 30.13 54.3 27.4 57.77" fill="none" stroke="#F4EDE2" stroke-width="0.57" stroke-linecap="round" stroke-linejoin="round"/></g><text x="0" y="212" font-size="10" font-family="sans-serif" fill="#333">Deer</text><text x="216" y="212" text-anchor="end" font-size="9" font-family="monospace" fill="#999">16</text></g><g transform="translate(704,516)"><rect width="216" height="198" fill="#8C4A2F"/><g transform="translate(0,-9) scale(2.16,2.16)"><path d="M31.42 41.92C43.69 41.59 56.02 41.2 68.6 40.91C68.03 46.68 67.35 52.3 66.78 58.21C55.59 58.28 44.37 58.2 32.77 58.22C32.36 52.91 31.88 47.53 31.42 41.92Z" fill="#F4EDE2" stroke="#F4EDE2" stroke-width="0.23" stroke-linecap="round" stroke-linejoin="round"/><path d="M36.64 58.44C36.19 60.77 35.63 63.05 35.32 66.16" fill="none" stroke="#F4EDE2" stroke-width="0.57" stroke-linecap="round" stroke-linejoin="round"/><path d="M35.47 66.07C35.07 68.27 34.53 70.91 34.41 73.25" fill="none" stroke="#F4EDE2" stroke-width="0.57" stroke-linecap="round" stroke-linejoin="round"/><path d="M43.44 58.38C42.91 61.14 42.61 63.27 42.02 66.2" fill="none" stroke="#F4EDE2" stroke-width="0.57" stroke-linecap="round" stroke-linejoin="round"/><path d="M41.86 66.13C41.62 67.84 41.68 70.71 41.48 72.92" fill="none" stroke="#F4EDE2" stroke-width="0.57" stroke-linecap="round" stroke-linejoin="round"/><path d="M56.94 58.25C57.47 61.32 58.15 63.35 58.21 66.31" fill="none" stroke="#F4EDE2" stroke-width="0.57" stroke-linecap="round" stroke-linejoin="round"/><path d="M58.34 66.11C58.86 69.13 58.91 71.36 58.99 73.08" fill="none" stroke="#F4EDE2" stroke-width="0.57" stroke-linecap="round" stroke-linejoin="round"/><path d="M63.64 58.07C64.22 60.57 64.85 63.71 64.94 66.18" fill="none" stroke="#F4EDE2" stroke-width="0.57" stroke-linecap="round" stroke-linejoin="round"/><path d="M64.88 66.05C65.48 69.01 65.39 71.19 65.63 72.93" fill="none" stroke="#F4EDE2" stroke-width="0.57" stroke-linecap="round" stroke-linejoin="round"/><path d="M64.73 45C68.32 40.8 71.32 36.81 74.63 33.13" fill="none" stroke="#F4EDE2" stroke-width="1.25" stroke-linecap="round" stroke-linejoin="round"/><path d="M71.77 36.17C74.69 35.55 77.55 35.07 80.44 34.41C80 33.19 79.45 32.11 79.01 30.85C76.64 30.6 74.35 30.24 72.01 29.94C71.93 31.94 71.79 34.08 71.77 36.17Z" fill="#F4EDE2" stroke="#F4EDE2" stroke-width="0.23" stroke-linecap="round" stroke-linejoin="round"/><path d="M79.14 34.88C80.3 36.73 85.91 42.26 86.09 46.02C86.27 49.78 81.19 55.54 80.21 57.45" fill="none" stroke="#F4EDE2" stroke-width="1.37" stroke-linecap="round" stroke-linejoin="round"/><path d="M71.35 29.49C68.14 27.77 64.82 26.13 61.49 24.38C62.41 29.47 63.21 34.63 64.15 39.99C66.57 36.53 68.93 33.07 71.35 29.49Z" fill="#F4EDE2" stroke="#F4EDE2" stroke-width="0.23" stroke-linecap="round" stroke-linejoin="round"/><path d="M69.57 28.96C67.54 32.17 66.72 34.14 65.28 37.64" fill="none" stroke="#8C4A2F" stroke-width="0.46" stroke-linecap="round" stroke-linejoin="round"/><path d="M78.84 36.85C81.26 37.36 84.23 38.32 87.04 38.94" fill="none" stroke="#F4EDE2" stroke-width="0.68" stroke-linecap="round" stroke-linejoin="round"/><path d="M31.14 46.79C28.33 51.55 26.31 53.79 23.41 58.01" fill="none" stroke="#F4EDE2" stroke-width="0.57" stroke-linecap="round" stroke-linejoin="round"/></g><text x="0" y="212" font-size="10" font-family="sans-serif" fill="#333">Elephant</text><text x="216" y="212" text-anchor="end" font-size="9" font-family="monospace" fill="#999">16</text></g><g transform="translate(936,516)"><rect width="216" height="198" fill="#8C4A2F"/><g transform="translate(0,-9) scale(2.16,2.16)"><path d="M38.09 46.03C45.89 45.97 53.7 45.86 61.79 45.79C61.36 48.5 61 51.09 60.68 53.89C53.55 53.91 46.28 53.9 38.94 53.89C38.66 51.32 38.38 48.66 38.09 46.03Z" fill="#F4EDE2" stroke="#F4EDE2" stroke-width="0.23" stroke-linecap="round" stroke-linejoin="round"/><path d="M41.58 53.73C40.98 56.53 40.77 58.03 40.27 60.1" fill="none" stroke="#F4EDE2" stroke-width="0.46" stroke-linecap="round" stroke-linejoin="round"/><path d="M40.26 60.41C40.28 62.66 39.95 64.51 39.8 65.5" fill="none" stroke="#F4EDE2" stroke-width="0.46" stroke-linecap="round" stroke-linejoin="round"/><path d="M45.44 53.78C45.02 56.28 45.07 58.7 44.65 60.06" fill="none" stroke="#F4EDE2" stroke-width="0.46" stroke-linecap="round" stroke-linejoin="round"/><path d="M44.72 60.16C44.63 62.37 44.15 64.42 43.98 65.92" fill="none" stroke="#F4EDE2" stroke-width="0.46" stroke-linecap="round" stroke-linejoin="round"/><path d="M54.65 53.94C55.03 56.62 55.44 58.82 55.71 60.25" fill="none" stroke="#F4EDE2" stroke-width="0.46" stroke-linecap="round" stroke-linejoin="round"/><path d="M55.75 60.03C55.71 62.5 56.06 64.18 56.23 65.64" fill="none" stroke="#F4EDE2" stroke-width="0.46" stroke-linecap="round" stroke-linejoin="round"/><path d="M58.76 53.97C58.98 56.59 59.25 57.84 59.98 60.18" fill="none" stroke="#F4EDE2" stroke-width="0.46" stroke-linecap="round" stroke-linejoin="round"/><path d="M59.91 60.15C59.85 62.27 60.25 63.8 60.57 65.6" fill="none" stroke="#F4EDE2" stroke-width="0.46" stroke-linecap="round" stroke-linejoin="round"/><path d="M59.4 47.58C61.7 45.39 65.08 41.31 66.56 39.15" fill="none" stroke="#F4EDE2" stroke-width="1.00" stroke-linecap="round" stroke-linejoin="round"/><path d="M64.48 41.46C66.77 40.97 69.02 40.54 71.32 40.08C70.97 39.2 70.65 38.13 70.3 37.22C68.44 37.07 66.59 36.79 64.58 36.64C64.57 38.27 64.5 39.88 64.48 41.46Z" fill="#F4EDE2" stroke="#F4EDE2" stroke-width="0.23" stroke-linecap="round" stroke-linejoin="round"/><path d="M38.29 48.14C37.22 47.2 32.28 44.1 31.87 42.51C31.45 40.92 35.15 39.25 35.81 38.6" fill="none" stroke="#F4EDE2" stroke-width="0.46" stroke-linecap="round" stroke-linejoin="round"/></g><text x="0" y="212" font-size="10" font-family="sans-serif" fill="#333">Dog</text><text x="216" y="212" text-anchor="end" font-size="9" font-family="monospace" fill="#999">12</text></g><g transform="translate(8,748)"><rect width="216" height="198" fill="#8C4A2F"/><g transform="translate(0,-9) scale(2.16,2.16)"><path d="M35.07 45.27C44.91 45.15 54.83 44.9 64.93 44.8C64.39 48.09 63.99 51.43 63.46 54.86C54.49 54.77 45.45 54.84 36.24 54.77C35.8 51.67 35.42 48.56 35.07 45.27Z" fill="#F4EDE2" stroke="#F4EDE2" stroke-width="0.23" stroke-linecap="round" stroke-linejoin="round"/><path d="M39.29 54.61C38.62 57.6 38.15 60.35 37.82 62.54" fill="none" stroke="#F4EDE2" stroke-width="0.57" stroke-linecap="round" stroke-linejoin="round"/><path d="M37.88 62.59C37.76 65.37 37.72 67.4 36.95 69.5" fill="none" stroke="#F4EDE2" stroke-width="0.57" stroke-linecap="round" stroke-linejoin="round"/><path d="M44.75 54.8C43.93 57.52 43.85 59.97 43.34 62.52" fill="none" stroke="#F4EDE2" stroke-width="0.57" stroke-linecap="round" stroke-linejoin="round"/><path d="M43.33 62.92C42.76 65.33 42.82 68.29 42.64 69.7" fill="none" stroke="#F4EDE2" stroke-width="0.57" stroke-linecap="round" stroke-linejoin="round"/><path d="M55.89 54.69C56.02 58.06 56.58 59.63 56.99 62.45" fill="none" stroke="#F4EDE2" stroke-width="0.57" stroke-linecap="round" stroke-linejoin="round"/><path d="M57.22 62.55C57.41 65.59 57.45 67.21 57.63 69.43" fill="none" stroke="#F4EDE2" stroke-width="0.57" stroke-linecap="round" stroke-linejoin="round"/><path d="M60.81 54.94C61.8 58.29 61.73 59.52 62.24 62.57" fill="none" stroke="#F4EDE2" stroke-width="0.57" stroke-linecap="round" stroke-linejoin="round"/><path d="M62.18 62.69C62.6 64.97 63.17 67.71 63.09 69.64" fill="none" stroke="#F4EDE2" stroke-width="0.57" stroke-linecap="round" stroke-linejoin="round"/><path d="M61.97 47.26C65.17 43.15 67.58 40.67 71.19 36.65" fill="none" stroke="#F4EDE2" stroke-width="1.25" stroke-linecap="round" stroke-linejoin="round"/><path d="M68 39.5C70.81 38.92 73.73 38.38 76.71 37.72C76.25 36.57 75.76 35.4 75.36 34.17C73.01 33.83 70.68 33.56 68.31 33.15C68.15 35.25 68.11 37.37 68 39.5Z" fill="#F4EDE2" stroke="#F4EDE2" stroke-width="0.23" stroke-linecap="round" stroke-linejoin="round"/><path d="M61.15 45.17C62.39 43.5 65.25 40.78 66.86 39.22" fill="none" stroke="#8C4A2F" stroke-width="0.40" stroke-linecap="round" stroke-linejoin="round"/><path d="M59.01 45.08C61.26 42.77 62.88 41.23 65.24 38.85" fill="none" stroke="#8C4A2F" stroke-width="0.40" stroke-linecap="round" stroke-linejoin="round"/><path d="M56.22 45.32C59.46 42.71 62.27 40.85 63.62 38.92" fill="none" stroke="#8C4A2F" stroke-width="0.40" stroke-linecap="round" stroke-linejoin="round"/><path d="M54.19 45.16C57.76 42.59 59.43 41.41 62.17 38.95" fill="none" stroke="#8C4A2F" stroke-width="0.40" stroke-linecap="round" stroke-linejoin="round"/><path d="M35.02 47.25C33.47 47.37 26.83 45.66 25.71 48C24.6 50.34 27.91 59.08 28.35 61.3" fill="none" stroke="#F4EDE2" stroke-width="0.80" stroke-linecap="round" stroke-linejoin="round"/></g><text x="0" y="212" font-size="10" font-family="sans-serif" fill="#333">Horse</text><text x="216" y="212" text-anchor="end" font-size="9" font-family="monospace" fill="#999">16</text></g><g transform="translate(240,748)"><rect width="216" height="198" fill="#8C4A2F"/><g transform="translate(0,-9) scale(2.16,2.16)"><path d="M35 45.22C44.84 45.08 54.81 44.85 64.94 44.71C64.41 47.96 63.78 51.29 63.28 54.69C54.35 54.75 45.51 54.71 36.37 54.77C35.85 51.59 35.42 48.53 35 45.22Z" fill="#F4EDE2" stroke="#F4EDE2" stroke-width="0.23" stroke-linecap="round" stroke-linejoin="round"/><path d="M39.19 54.71C38.62 57.32 38.44 60.54 37.92 62.57" fill="none" stroke="#F4EDE2" stroke-width="0.57" stroke-linecap="round" stroke-linejoin="round"/><path d="M38.03 62.46C37.33 65.84 37.32 67.49 37.26 69.44" fill="none" stroke="#F4EDE2" stroke-width="0.57" stroke-linecap="round" stroke-linejoin="round"/><path d="M44.43 54.54C44.24 58.21 43.72 60.45 43.47 62.75" fill="none" stroke="#F4EDE2" stroke-width="0.57" stroke-linecap="round" stroke-linejoin="round"/><path d="M43.32 62.81C42.94 64.71 42.53 67.13 42.56 69.67" fill="none" stroke="#F4EDE2" stroke-width="0.57" stroke-linecap="round" stroke-linejoin="round"/><path d="M55.39 55.09C56.07 57.21 56.9 60.85 57.24 62.52" fill="none" stroke="#F4EDE2" stroke-width="0.57" stroke-linecap="round" stroke-linejoin="round"/><path d="M57.25 62.46C57.03 64.62 57.47 67.73 57.65 69.66" fill="none" stroke="#F4EDE2" stroke-width="0.57" stroke-linecap="round" stroke-linejoin="round"/><path d="M61.14 54.7C61.35 57.57 61.73 59.75 62.22 62.88" fill="none" stroke="#F4EDE2" stroke-width="0.57" stroke-linecap="round" stroke-linejoin="round"/><path d="M62.44 62.83C62.93 65.64 62.67 67.56 63.33 69.45" fill="none" stroke="#F4EDE2" stroke-width="0.57" stroke-linecap="round" stroke-linejoin="round"/><path d="M61.9 46.84C64.55 44.11 68.75 38.76 71.14 36.45" fill="none" stroke="#F4EDE2" stroke-width="1.25" stroke-linecap="round" stroke-linejoin="round"/><path d="M68.03 39.45C70.92 38.78 73.69 38.14 76.68 37.57C76.27 36.47 75.77 35.29 75.38 34.09C73.05 33.77 70.68 33.58 68.29 33.26C68.15 35.28 68.17 37.28 68.03 39.45Z" fill="#F4EDE2" stroke="#F4EDE2" stroke-width="0.23" stroke-linecap="round" stroke-linejoin="round"/><path d="M39.34 45.41C38.9 49.15 38.65 51.43 38.01 54.76" fill="none" stroke="#8C4A2F" stroke-width="0.51" stroke-linecap="round" stroke-linejoin="round"/><path d="M44.38 45.23C44.15 49.12 43.9 52.04 43.15 54.75" fill="none" stroke="#8C4A2F" stroke-width="0.51" stroke-linecap="round" stroke-linejoin="round"/><path d="M49.56 45.27C49.11 49.25 48.61 51.76 48.61 54.81" fill="none" stroke="#8C4A2F" stroke-width="0.51" stroke-linecap="round" stroke-linejoin="round"/><path d="M54.73 44.96C54.56 47.96 54.19 51.48 53.27 54.64" fill="none" stroke="#8C4A2F" stroke-width="0.51" stroke-linecap="round" stroke-linejoin="round"/><path d="M59.59 45.18C59.37 48.27 59 52.4 58.77 54.68" fill="none" stroke="#8C4A2F" stroke-width="0.51" stroke-linecap="round" stroke-linejoin="round"/><path d="M35.34 48.13C33.39 47.87 25.11 48.58 23.63 46.57C22.15 44.56 25.99 37.81 26.46 36.06" fill="none" stroke="#F4EDE2" stroke-width="0.68" stroke-linecap="round" stroke-linejoin="round"/><path d="M69.04 31.83C68.28 30.03 67.52 28.78 66.56 27.73" fill="none" stroke="#F4EDE2" stroke-width="0.57" stroke-linecap="round" stroke-linejoin="round"/><path d="M73.83 32.97C74.23 31.52 74.88 29.06 75.59 27.68" fill="none" stroke="#F4EDE2" stroke-width="0.57" stroke-linecap="round" stroke-linejoin="round"/></g><text x="0" y="212" font-size="10" font-family="sans-serif" fill="#333">Tiger</text><text x="216" y="212" text-anchor="end" font-size="9" font-family="monospace" fill="#999">19</text></g><g transform="translate(472,748)"><rect width="216" height="198" fill="#8C4A2F"/><g transform="translate(0,-9) scale(2.16,2.16)"><path d="M22.87 45.27C32.63 45.15 42.52 45 52.6 44.78C52.16 48.13 51.63 51.43 51.24 54.82C42.28 54.72 33.2 54.7 23.95 54.74C23.55 51.63 23.23 48.48 22.87 45.27Z" fill="#F4EDE2" stroke="#F4EDE2" stroke-width="0.23" stroke-linecap="round" stroke-linejoin="round"/><path d="M27.15 54.56C26.71 57.06 26.05 60.03 25.51 62.69" fill="none" stroke="#F4EDE2" stroke-width="0.57" stroke-linecap="round" stroke-linejoin="round"/><path d="M25.52 62.42C25.67 64.92 25.33 66.93 24.95 69.65" fill="none" stroke="#F4EDE2" stroke-width="0.57" stroke-linecap="round" stroke-linejoin="round"/><path d="M32.42 54.74C31.99 57.56 31.52 60.05 30.88 62.77" fill="none" stroke="#F4EDE2" stroke-width="0.57" stroke-linecap="round" stroke-linejoin="round"/><path d="M30.94 62.81C30.95 64.99 30.53 67.77 30.47 69.47" fill="none" stroke="#F4EDE2" stroke-width="0.57" stroke-linecap="round" stroke-linejoin="round"/><path d="M43.46 55.09C44.07 57.12 44.35 60.79 44.77 62.53" fill="none" stroke="#F4EDE2" stroke-width="0.57" stroke-linecap="round" stroke-linejoin="round"/><path d="M44.7 62.79C44.9 65.55 45.31 68.22 45.52 69.44" fill="none" stroke="#F4EDE2" stroke-width="0.57" stroke-linecap="round" stroke-linejoin="round"/><path d="M48.96 54.9C48.94 57.5 49.73 60.31 50.2 62.94" fill="none" stroke="#F4EDE2" stroke-width="0.57" stroke-linecap="round" stroke-linejoin="round"/><path d="M50.15 62.48C50.57 65.15 50.79 67.21 50.97 69.78" fill="none" stroke="#F4EDE2" stroke-width="0.57" stroke-linecap="round" stroke-linejoin="round"/><path d="M49.5 47.28C53.44 42.89 55.47 39.93 58.52 36.61" fill="none" stroke="#F4EDE2" stroke-width="1.25" stroke-linecap="round" stroke-linejoin="round"/><path d="M55.8 39.45C58.64 38.79 61.63 38.3 64.54 37.61C64.07 36.51 63.68 35.33 63.16 34.1C60.75 33.87 58.41 33.63 55.99 33.33C55.97 35.32 55.82 37.38 55.8 39.45Z" fill="#F4EDE2" stroke="#F4EDE2" stroke-width="0.23" stroke-linecap="round" stroke-linejoin="round"/><path d="M57.6 32.06C56.78 29.76 54.47 25.79 53.57 24.33" fill="none" stroke="#F4EDE2" stroke-width="0.57" stroke-linecap="round" stroke-linejoin="round"/><path d="M60.56 33.02C62.28 30.24 63.49 27.18 64.61 25.05" fill="none" stroke="#F4EDE2" stroke-width="0.57" stroke-linecap="round" stroke-linejoin="round"/><path d="M22.91 48.07C20.44 51.34 17.45 55 14.79 57.93" fill="none" stroke="#F4EDE2" stroke-width="0.57" stroke-linecap="round" stroke-linejoin="round"/><path d="M68.72 59.89C73.65 59.85 78.62 59.71 83.79 59.64C83.49 61.33 83.25 62.93 82.91 64.7C78.52 64.75 74.02 64.66 69.49 64.67C69.26 63.11 68.99 61.48 68.72 59.89Z" fill="#F4EDE2" stroke="#F4EDE2" stroke-width="0.23" stroke-linecap="round" stroke-linejoin="round"/><path d="M70.86 64.58C70.93 65.57 70.11 67.69 70.16 68.71" fill="none" stroke="#F4EDE2" stroke-width="0.33" stroke-linecap="round" stroke-linejoin="round"/><path d="M69.93 68.73C70.06 69.62 69.91 71.04 69.84 72.21" fill="none" stroke="#F4EDE2" stroke-width="0.33" stroke-linecap="round" stroke-linejoin="round"/><path d="M73.5 64.85C73.57 65.77 72.93 67.37 72.82 68.34" fill="none" stroke="#F4EDE2" stroke-width="0.33" stroke-linecap="round" stroke-linejoin="round"/><path d="M72.75 68.53C72.68 69.55 72.62 70.87 72.43 72.36" fill="none" stroke="#F4EDE2" stroke-width="0.33" stroke-linecap="round" stroke-linejoin="round"/><path d="M78.92 64.73C79.56 66.48 79.36 66.9 79.74 68.79" fill="none" stroke="#F4EDE2" stroke-width="0.33" stroke-linecap="round" stroke-linejoin="round"/><path d="M79.52 68.71C79.93 69.73 80.3 71.34 80.28 71.9" fill="none" stroke="#F4EDE2" stroke-width="0.33" stroke-linecap="round" stroke-linejoin="round"/><path d="M81.59 64.91C81.79 66.38 82.06 67.17 82.56 68.38" fill="none" stroke="#F4EDE2" stroke-width="0.33" stroke-linecap="round" stroke-linejoin="round"/><path d="M82.47 68.85C82.75 69.41 82.63 70.94 82.99 72.02" fill="none" stroke="#F4EDE2" stroke-width="0.33" stroke-linecap="round" stroke-linejoin="round"/><path d="M82.27 60.99C83.88 58.77 84.85 57.69 86.95 55.29" fill="none" stroke="#F4EDE2" stroke-width="0.72" stroke-linecap="round" stroke-linejoin="round"/><path d="M85.15 56.88C86.6 56.69 87.97 56.35 89.48 56.17C89.36 55.53 89.19 54.92 89.03 54.26C87.8 54.19 86.67 54.01 85.42 53.95C85.27 54.98 85.23 55.83 85.15 56.88Z" fill="#F4EDE2" stroke="#F4EDE2" stroke-width="0.23" stroke-linecap="round" stroke-linejoin="round"/><path d="M86.53 53.45C85.76 51.8 84.93 50.52 83.98 49.57" fill="none" stroke="#F4EDE2" stroke-width="0.33" stroke-linecap="round" stroke-linejoin="round"/><path d="M87.87 53.74C88.38 52.3 89.51 50.49 89.79 49.65" fill="none" stroke="#F4EDE2" stroke-width="0.33" stroke-linecap="round" stroke-linejoin="round"/><path d="M68.53 61.57C67.4 62.95 66.07 64.23 64.72 66.15" fill="none" stroke="#F4EDE2" stroke-width="0.33" stroke-linecap="round" stroke-linejoin="round"/></g><text x="0" y="212" font-size="10" font-family="sans-serif" fill="#333">Cow and calf</text><text x="216" y="212" text-anchor="end" font-size="9" font-family="monospace" fill="#999">28</text></g><g transform="translate(704,748)"><rect width="216" height="198" fill="#8C4A2F"/><g transform="translate(0,-9) scale(2.16,2.16)"><path d="M35.17 45.28C44.98 45.1 54.81 44.97 64.99 44.74C64.42 48.14 63.88 51.41 63.39 54.87C54.5 54.83 45.45 54.9 36.31 54.86C35.95 51.74 35.57 48.48 35.17 45.28Z" fill="#F4EDE2" stroke="#F4EDE2" stroke-width="0.23" stroke-linecap="round" stroke-linejoin="round"/><path d="M39.19 54.68C38.9 57.79 38.37 60.85 37.97 62.76" fill="none" stroke="#F4EDE2" stroke-width="0.57" stroke-linecap="round" stroke-linejoin="round"/><path d="M37.87 62.43C37.66 64.93 37.32 67.04 36.96 69.68" fill="none" stroke="#F4EDE2" stroke-width="0.57" stroke-linecap="round" stroke-linejoin="round"/><path d="M44.4 54.95C43.9 57.52 44.01 60.11 43.2 62.79" fill="none" stroke="#F4EDE2" stroke-width="0.57" stroke-linecap="round" stroke-linejoin="round"/><path d="M43.38 62.5C42.8 65.03 42.96 67.78 42.8 69.47" fill="none" stroke="#F4EDE2" stroke-width="0.57" stroke-linecap="round" stroke-linejoin="round"/><path d="M55.69 54.67C55.99 57.6 56.75 60.58 57.25 62.74" fill="none" stroke="#F4EDE2" stroke-width="0.57" stroke-linecap="round" stroke-linejoin="round"/><path d="M56.95 62.78C57.11 65.5 57.65 67.95 57.81 69.77" fill="none" stroke="#F4EDE2" stroke-width="0.57" stroke-linecap="round" stroke-linejoin="round"/><path d="M61.19 54.92C61.32 57.33 61.89 60.27 62.52 62.49" fill="none" stroke="#F4EDE2" stroke-width="0.57" stroke-linecap="round" stroke-linejoin="round"/><path d="M62.3 62.93C62.76 65.55 62.84 67.29 62.97 69.59" fill="none" stroke="#F4EDE2" stroke-width="0.57" stroke-linecap="round" stroke-linejoin="round"/><path d="M61.98 47.29C64.94 44.01 68.08 39.77 71.09 36.71" fill="none" stroke="#F4EDE2" stroke-width="1.25" stroke-linecap="round" stroke-linejoin="round"/><path d="M68.05 39.48C70.92 38.91 73.75 38.26 76.62 37.72C76.25 36.6 75.9 35.34 75.44 34.19C73.08 33.82 70.72 33.63 68.28 33.28C68.21 35.38 68.14 37.44 68.05 39.48Z" fill="#F4EDE2" stroke="#F4EDE2" stroke-width="0.23" stroke-linecap="round" stroke-linejoin="round"/><path d="M60.99 45.05C62.7 43.2 65.16 40.18 66.75 38.8" fill="none" stroke="#8C4A2F" stroke-width="0.40" stroke-linecap="round" stroke-linejoin="round"/><path d="M58.47 45.11C60.93 43.02 63.94 40.77 65.02 38.85" fill="none" stroke="#8C4A2F" stroke-width="0.40" stroke-linecap="round" stroke-linejoin="round"/><path d="M56.3 44.92C59.33 42.69 60.9 41.29 64.02 38.78" fill="none" stroke="#8C4A2F" stroke-width="0.40" stroke-linecap="round" stroke-linejoin="round"/><path d="M54.19 45.24C56.84 43.58 60.33 41.04 62.32 39" fill="none" stroke="#8C4A2F" stroke-width="0.40" stroke-linecap="round" stroke-linejoin="round"/><path d="M35.25 47.18C33.6 47.38 26.53 46.07 25.33 48.39C24.14 50.72 27.62 59.01 28.08 61.14" fill="none" stroke="#F4EDE2" stroke-width="0.80" stroke-linecap="round" stroke-linejoin="round"/><path d="M47.84 10.41C48.16 10.26 49.13 9.57 49.72 9.51C50.31 9.44 50.85 9.73 51.39 10.03C51.93 10.33 52.71 10.78 52.94 11.3C53.18 11.83 53.06 12.57 52.79 13.18C52.53 13.79 51.87 14.64 51.32 14.96C50.78 15.28 50.09 15.27 49.51 15.1C48.94 14.92 48.3 14.36 47.89 13.91C47.47 13.45 46.99 12.93 47.02 12.37C47.05 11.81 47.9 10.84 48.07 10.53" fill="#F4EDE2" stroke="#F4EDE2" stroke-width="0.65" stroke-linecap="round" stroke-linejoin="round"/><path d="M45.11 14.84C48.3 14.83 51.56 14.82 54.93 14.8C53.24 18.91 51.7 22.99 49.95 27.21C48.3 23.13 46.73 19.05 45.11 14.84Z" fill="#F4EDE2" stroke="#F4EDE2" stroke-width="0.23" stroke-linecap="round" stroke-linejoin="round"/><path d="M50.04 27.22C51.47 30.66 52.82 34.03 54.22 37.59C51.55 37.57 48.75 37.52 45.98 37.5C47.29 34.12 48.6 30.67 50.04 27.22Z" fill="#F4EDE2" stroke="#F4EDE2" stroke-width="0.23" stroke-linecap="round" stroke-linejoin="round"/><path d="M45.75 14.83C44.48 17.14 43.62 19.4 42.54 22.59" fill="none" stroke="#F4EDE2" stroke-width="0.35" stroke-linecap="round" stroke-linejoin="round"/><path d="M42.58 22.61C42.18 24.56 41.5 26.59 41.03 28.79" fill="none" stroke="#F4EDE2" stroke-width="0.35" stroke-linecap="round" stroke-linejoin="round"/><path d="M54.14 15.3C55.65 17.81 56.61 19.93 57.6 22.48" fill="none" stroke="#F4EDE2" stroke-width="0.35" stroke-linecap="round" stroke-linejoin="round"/><path d="M57.5 22.27C58.36 24.72 58.85 26.92 59.4 28.75" fill="none" stroke="#F4EDE2" stroke-width="0.35" stroke-linecap="round" stroke-linejoin="round"/><path d="M47.15 37.33C45.63 38.88 43.09 40.77 41.33 41.72" fill="none" stroke="#F4EDE2" stroke-width="0.35" stroke-linecap="round" stroke-linejoin="round"/><path d="M41.46 42.05C44.4 43.43 46.26 44.43 48.12 45.86" fill="none" stroke="#F4EDE2" stroke-width="0.35" stroke-linecap="round" stroke-linejoin="round"/><path d="M52.72 37.33C54.69 39.1 57.53 40.63 58.55 41.84" fill="none" stroke="#F4EDE2" stroke-width="0.35" stroke-linecap="round" stroke-linejoin="round"/><path d="M58.96 41.69C56.44 43.38 53.83 44.38 51.43 45.63" fill="none" stroke="#F4EDE2" stroke-width="0.35" stroke-linecap="round" stroke-linejoin="round"/></g><text x="0" y="212" font-size="10" font-family="sans-serif" fill="#333">Rider on a horse</text><text x="216" y="212" text-anchor="end" font-size="9" font-family="monospace" fill="#999">27</text></g><g transform="translate(936,748)"><rect width="216" height="198" fill="#8C4A2F"/><g transform="translate(0,-9) scale(2.16,2.16)"><path d="M39.39 49.97C45.74 48.19 52.02 46.56 58.43 44.78C57.77 48.51 57.07 52.39 56.4 56.25C50.77 54.13 45.15 52.12 39.39 49.97Z" fill="#F4EDE2" stroke="#F4EDE2" stroke-width="0.23" stroke-linecap="round" stroke-linejoin="round"/><path d="M59.87 46.94C59.5 46.86 58.24 46.75 57.68 46.43C57.12 46.11 56.75 45.65 56.52 45.01C56.28 44.36 56.09 43.18 56.27 42.56C56.45 41.94 56.95 41.57 57.62 41.28C58.28 40.98 59.59 40.73 60.25 40.81C60.91 40.88 61.22 41.25 61.58 41.73C61.94 42.21 62.34 43.05 62.43 43.68C62.53 44.31 62.55 44.94 62.14 45.51C61.74 46.08 60.35 46.85 59.99 47.11" fill="#F4EDE2" stroke="#F4EDE2" stroke-width="0.65" stroke-linecap="round" stroke-linejoin="round"/><path d="M62.85 43.98C64.01 44.1 66.79 44.75 68.04 44.74" fill="none" stroke="#F4EDE2" stroke-width="0.65" stroke-linecap="round" stroke-linejoin="round"/><path d="M45.83 55.1C45.81 57.84 45.71 60.03 45.75 62.59" fill="none" stroke="#F4EDE2" stroke-width="0.65" stroke-linecap="round" stroke-linejoin="round"/><path d="M51.99 55.15C52.19 57.59 51.96 60.2 52.13 62.85" fill="none" stroke="#F4EDE2" stroke-width="0.65" stroke-linecap="round" stroke-linejoin="round"/></g><text x="0" y="212" font-size="10" font-family="sans-serif" fill="#333">Bird</text><text x="216" y="212" text-anchor="end" font-size="9" font-family="monospace" fill="#999">5</text></g></svg>